<svg width="36" height="33" viewBox="0 0 36 33" fill="none" xmlns="http://www.w3.org/2000/svg">
<path d="M16.2182 31.4364C20.2543 31.4364 24.1251 29.833 26.9791 26.9791C29.833 24.1251 31.4364 20.2543 31.4364 16.2182C31.4364 12.1821 29.833 8.31126 26.9791 5.4573C24.1251 2.60334 20.2543 1 16.2182 1C12.1821 1 8.31126 2.60334 5.4573 5.4573C2.60334 8.31126 1 12.1821 1 16.2182C1 20.2543 2.60334 24.1251 5.4573 26.9791C8.31126 29.833 12.1821 31.4364 16.2182 31.4364Z" stroke="#030319" stroke-width="2"/>
<path d="M16.2182 31.4364C20.2543 31.4364 24.1251 29.833 26.9791 26.9791C29.833 24.1251 31.4364 20.2543 31.4364 16.2182C31.4364 12.1821 29.833 8.31126 26.9791 5.4573C24.1251 2.60334 20.2543 1 16.2182 1C12.1821 1 8.31126 2.60334 5.4573 5.4573C2.60334 8.31126 1 12.1821 1 16.2182C1 20.2543 2.60334 24.1251 5.4573 26.9791C8.31126 29.833 12.1821 31.4364 16.2182 31.4364Z" stroke="#030319" stroke-opacity="0.2" stroke-width="2"/>
<g clip-path="url(#clip0_947_4104)">
<path d="M20.5876 22.0993C20.5905 22.2227 20.6898 22.3188 20.8125 22.3188H21.75C21.75 22.3188 21.75 22.3188 21.75 22.3188C21.7801 22.3188 21.8098 22.3128 21.8374 22.3011C21.8651 22.2894 21.8902 22.2724 21.9111 22.2509C21.9321 22.2294 21.9485 22.2039 21.9595 22.176C21.9704 22.1481 21.9757 22.1184 21.975 22.0885C21.9591 21.3291 21.8018 20.59 21.5062 19.8924C21.2065 19.1823 20.7714 18.5373 20.2254 17.9933C19.7168 17.4837 19.1205 17.0705 18.4655 16.7735C19.3852 16.0462 19.975 14.9197 19.975 13.6562C19.975 11.4604 18.1959 9.68125 16 9.68125C13.8042 9.68125 12.025 11.4604 12.025 13.6562C12.025 14.9197 12.6149 16.0463 13.5346 16.7749C12.8784 17.0714 12.2869 17.4812 11.7747 17.9948C11.2292 18.5392 10.7943 19.1841 10.4939 19.8938C10.1988 20.5887 10.0397 21.3336 10.0251 22.0884M20.5876 22.0993C20.5876 22.0993 20.5876 22.0992 20.5876 22.0991L20.6875 22.0969M20.5876 22.0993C20.5876 22.0994 20.5876 22.0994 20.5876 22.0995L20.6875 22.0969M20.5876 22.0993C20.5569 20.9187 20.083 19.8135 19.245 18.9754C18.3778 18.1082 17.2266 17.6312 16 17.6312C14.7734 17.6312 13.6223 18.1082 12.7551 18.9754C11.917 19.8135 11.4431 20.9188 11.4125 22.0995C11.4096 22.2203 11.3111 22.3188 11.1875 22.3188H10.2501C10.2501 22.3188 10.25 22.3188 10.25 22.3188C10.22 22.3188 10.1903 22.3128 10.1626 22.3011C10.135 22.2894 10.1099 22.2724 10.0889 22.2509C10.068 22.2294 10.0515 22.2039 10.0406 22.176C10.0296 22.1481 10.0244 22.1183 10.0251 22.0884M20.6875 22.0969C20.6891 22.1656 20.7438 22.2188 20.8125 22.2188H21.75C21.7667 22.2188 21.7832 22.2154 21.7986 22.2089C21.814 22.2025 21.8279 22.193 21.8395 22.181C21.8512 22.1691 21.8603 22.1549 21.8664 22.1394C21.8725 22.1239 21.8755 22.1073 21.875 22.0906L20.6875 22.0969ZM10.0251 22.0884C10.0251 22.0883 10.0251 22.0882 10.0251 22.0881L10.125 22.0906L10.0251 22.0887C10.0251 22.0886 10.0251 22.0885 10.0251 22.0884ZM16 16.2438C15.3094 16.2438 14.6598 15.9746 14.1707 15.4855C13.6817 14.9965 13.4125 14.3469 13.4125 13.6562C13.4125 12.9656 13.6817 12.316 14.1707 11.827C14.6598 11.3379 15.3094 11.0688 16 11.0688C16.6907 11.0688 17.3402 11.3379 17.8293 11.827C18.3184 12.316 18.5875 12.9656 18.5875 13.6562C18.5875 14.3469 18.3184 14.9965 17.8293 15.4855C17.3402 15.9746 16.6907 16.2438 16 16.2438Z" fill="#030319" stroke="#030319" stroke-width="0.2"/>
</g>
<path d="M29.8185 31.6722C31.4581 31.6722 33.0304 31.0209 34.1897 29.8616C35.3491 28.7023 36.0004 27.1299 36.0004 25.4904C36.0004 23.8509 35.3491 22.2785 34.1897 21.1192C33.0304 19.9599 31.4581 19.3086 29.8185 19.3086C28.179 19.3086 26.6066 19.9599 25.4473 21.1192C24.288 22.2785 23.6367 23.8509 23.6367 25.4904C23.6367 27.1299 24.288 28.7023 25.4473 29.8616C26.6066 31.0209 28.179 31.6722 29.8185 31.6722Z" fill="#FB5D19"/>
<path d="M30.8891 24.3823L30.1164 28.018C30.0623 28.2807 30.1388 28.4298 30.3513 28.4298C30.5012 28.4298 30.7276 28.3757 30.8814 28.2397L30.8134 28.5612C30.5916 28.8285 30.1025 29.0233 29.6814 29.0233C29.1381 29.0233 28.9071 28.6972 29.057 28.004L29.6273 25.3242C29.6767 25.0978 29.6319 25.0159 29.4055 24.961L29.057 24.8985L29.1204 24.604L30.8899 24.3823H30.8891ZM30.1705 23.5415C29.9655 23.5415 29.769 23.4601 29.6241 23.3152C29.4792 23.1703 29.3978 22.9738 29.3978 22.7688C29.3978 22.5639 29.4792 22.3673 29.6241 22.2224C29.769 22.0775 29.9655 21.9961 30.1705 21.9961C30.3754 21.9961 30.572 22.0775 30.7169 22.2224C30.8618 22.3673 30.9432 22.5639 30.9432 22.7688C30.9432 22.9738 30.8618 23.1703 30.7169 23.3152C30.572 23.4601 30.3754 23.5415 30.1705 23.5415Z" fill="white"/>
<defs>
<clipPath id="clip0_947_4104">
<rect width="16" height="16" fill="white" transform="translate(8 8)"/>
</clipPath>
</defs>
</svg>
